<svg xmlns="http://www.w3.org/2000/svg" x="0px" y="0px"
width="64" height="64"
viewBox="0 0 172 172"
style=" fill:#000000;"><g fill="none" fill-rule="nonzero" stroke="none" stroke-width="1" stroke-linecap="butt" stroke-linejoin="miter" stroke-miterlimit="10" stroke-dasharray="" stroke-dashoffset="0" font-family="none" font-weight="none" font-size="none" text-anchor="none" style="mix-blend-mode: normal"><path d="M0,172v-172h172v172z" fill="none"></path><g><path d="M169.34609,86c0,-46.02344 -37.32266,-83.34609 -83.34609,-83.34609c-46.02344,0 -83.34609,37.32266 -83.34609,83.34609c0,46.02344 37.32266,83.34609 83.34609,83.34609c46.02344,0 83.34609,-37.32266 83.34609,-83.34609z" fill="#cccccc"></path><path d="M95.74219,86l24.35547,-28.28594c2.65391,-3.09062 2.31797,-7.72656 -0.77266,-10.41406c-3.09063,-2.65391 -7.72656,-2.31797 -10.38047,0.77266l-22.94453,26.63984l-22.91094,-26.60625c-2.65391,-3.09062 -7.32344,-3.42656 -10.41406,-0.77266c-3.09062,2.65391 -3.42656,7.32344 -0.77266,10.41406l24.35547,28.25234l-24.35547,28.28594c-2.65391,3.09062 -2.31797,7.72656 0.77266,10.41406c1.37734,1.20937 3.09062,1.78047 4.80391,1.78047c2.08281,0 4.13203,-0.87344 5.57656,-2.55313l22.91094,-26.60625l22.91094,26.60625c1.44453,1.67969 3.52734,2.55313 5.57656,2.55313c1.71328,0 3.42656,-0.57109 4.80391,-1.78047c3.09063,-2.65391 3.42656,-7.32344 0.77266,-10.41406z" fill="#ffffff"></path></g></g></svg>